<svg xmlns="http://www.w3.org/2000/svg" viewBox="0 0 60 40">
  <rect width="60" height="40" fill="#012169"/>
  <g fill="#FFF">
    <polygon points="0,0 24,0 60,25 60,40 36,40 0,15"/>
    <polygon points="60,0 36,0 0,25 0,40 24,40 60,15"/>
  </g>
  <g fill="#C8102E">
    <polygon points="0,0 27,0 60,22 60,28 33,10 0,28"/>
    <polygon points="60,0 33,0 0,22 0,28 27,10 60,28"/>
  </g>
  <rect x="25" width="10" height="40" fill="#FFF"/>
  <rect y="15" width="60" height="10" fill="#FFF"/>
  <rect x="27" width="6" height="40" fill="#C8102E"/>
  <rect y="17" width="60" height="6" fill="#C8102E"/>
</svg>













