<svg xmlns="http://www.w3.org/2000/svg" viewBox="0 0 60 40">
  <!-- Red and white stripes -->
  <rect width="60" height="40" fill="#B22234"/>
  <rect y="3.0769" width="60" height="3.0769" fill="#FFF"/>
  <rect y="6.1538" width="60" height="3.0769" fill="#B22234"/>
  <rect y="9.2307" width="60" height="3.0769" fill="#FFF"/>
  <rect y="12.3076" width="60" height="3.0769" fill="#B22234"/>
  <rect y="15.3845" width="60" height="3.0769" fill="#FFF"/>
  <rect y="18.4614" width="60" height="3.0769" fill="#B22234"/>
  <rect y="21.5383" width="60" height="3.0769" fill="#FFF"/>
  <rect y="24.6152" width="60" height="3.0769" fill="#B22234"/>
  <rect y="27.6921" width="60" height="3.0769" fill="#FFF"/>
  <rect y="30.769" width="60" height="3.0769" fill="#B22234"/>
  <rect y="33.8459" width="60" height="3.0769" fill="#FFF"/>
  <rect y="36.9228" width="60" height="3.0769" fill="#B22234"/>
  
  <!-- Blue canton -->
  <rect width="24" height="16.1538" fill="#3C3B6E"/>
  
  <!-- Stars - simplified 5-pointed stars using polygons -->
  <g fill="#FFF">
    <!-- Row 1: 6 stars -->
    <polygon points="1.5,1.5 1.65,2.1 2.25,2.1 1.8,2.4 1.95,3 1.5,2.7 1.05,3 1.2,2.4 0.75,2.1 1.35,2.1" />
    <polygon points="4,1.5 4.15,2.1 4.75,2.1 4.3,2.4 4.45,3 4,2.7 3.55,3 3.7,2.4 3.25,2.1 3.85,2.1" />
    <polygon points="6.5,1.5 6.65,2.1 7.25,2.1 6.8,2.4 6.95,3 6.5,2.7 6.05,3 6.2,2.4 5.75,2.1 6.35,2.1" />
    <polygon points="9,1.5 9.15,2.1 9.75,2.1 9.3,2.4 9.45,3 9,2.7 8.55,3 8.7,2.4 8.25,2.1 8.85,2.1" />
    <polygon points="11.5,1.5 11.65,2.1 12.25,2.1 11.8,2.4 11.95,3 11.5,2.7 11.05,3 11.2,2.4 10.75,2.1 11.35,2.1" />
    <polygon points="14,1.5 14.15,2.1 14.75,2.1 14.3,2.4 14.45,3 14,2.7 13.55,3 13.7,2.4 13.25,2.1 13.85,2.1" />
    
    <!-- Row 2: 6 stars (offset) -->
    <polygon points="2.75,4 2.9,4.6 3.5,4.6 3.05,4.9 3.2,5.5 2.75,5.2 2.3,5.5 2.45,4.9 2,4.6 2.6,4.6" />
    <polygon points="5.25,4 5.4,4.6 6,4.6 5.55,4.9 5.7,5.5 5.25,5.2 4.8,5.5 4.95,4.9 4.5,4.6 5.1,4.6" />
    <polygon points="7.75,4 7.9,4.6 8.5,4.6 8.05,4.9 8.2,5.5 7.75,5.2 7.3,5.5 7.45,4.9 7,4.6 7.6,4.6" />
    <polygon points="10.25,4 10.4,4.6 11,4.6 10.55,4.9 10.7,5.5 10.25,5.2 9.8,5.5 9.95,4.9 9.5,4.6 10.1,4.6" />
    <polygon points="12.75,4 12.9,4.6 13.5,4.6 13.05,4.9 13.2,5.5 12.75,5.2 12.3,5.5 12.45,4.9 12,4.6 12.6,4.6" />
    <polygon points="15.25,4 15.4,4.6 16,4.6 15.55,4.9 15.7,5.5 15.25,5.2 14.8,5.5 14.95,4.9 14.5,4.6 15.1,4.6" />
    
    <!-- Row 3: 6 stars -->
    <polygon points="1.5,6.5 1.65,7.1 2.25,7.1 1.8,7.4 1.95,8 1.5,7.7 1.05,8 1.2,7.4 0.75,7.1 1.35,7.1" />
    <polygon points="4,6.5 4.15,7.1 4.75,7.1 4.3,7.4 4.45,8 4,7.7 3.55,8 3.7,7.4 3.25,7.1 3.85,7.1" />
    <polygon points="6.5,6.5 6.65,7.1 7.25,7.1 6.8,7.4 6.95,8 6.5,7.7 6.05,8 6.2,7.4 5.75,7.1 6.35,7.1" />
    <polygon points="9,6.5 9.15,7.1 9.75,7.1 9.3,7.4 9.45,8 9,7.7 8.55,8 8.7,7.4 8.25,7.1 8.85,7.1" />
    <polygon points="11.5,6.5 11.65,7.1 12.25,7.1 11.8,7.4 11.95,8 11.5,7.7 11.05,8 11.2,7.4 10.75,7.1 11.35,7.1" />
    <polygon points="14,6.5 14.15,7.1 14.75,7.1 14.3,7.4 14.45,8 14,7.7 13.55,8 13.7,7.4 13.25,7.1 13.85,7.1" />
    
    <!-- Row 4: 6 stars (offset) -->
    <polygon points="2.75,9 2.9,9.6 3.5,9.6 3.05,9.9 3.2,10.5 2.75,10.2 2.3,10.5 2.45,9.9 2,9.6 2.6,9.6" />
    <polygon points="5.25,9 5.4,9.6 6,9.6 5.55,9.9 5.7,10.5 5.25,10.2 4.8,10.5 4.95,9.9 4.5,9.6 5.1,9.6" />
    <polygon points="7.75,9 7.9,9.6 8.5,9.6 8.05,9.9 8.2,10.5 7.75,10.2 7.3,10.5 7.45,9.9 7,9.6 7.6,9.6" />
    <polygon points="10.25,9 10.4,9.6 11,9.6 10.55,9.9 10.7,10.5 10.25,10.2 9.8,10.5 9.95,9.9 9.5,9.6 10.1,9.6" />
    <polygon points="12.75,9 12.9,9.6 13.5,9.6 13.05,9.9 13.2,10.5 12.75,10.2 12.3,10.5 12.45,9.9 12,9.6 12.6,9.6" />
    <polygon points="15.25,9 15.4,9.6 16,9.6 15.55,9.9 15.7,10.5 15.25,10.2 14.8,10.5 14.95,9.9 14.5,9.6 15.1,9.6" />
    
    <!-- Row 5: 6 stars -->
    <polygon points="1.5,12 1.65,12.6 2.25,12.6 1.8,12.9 1.95,13.5 1.5,13.2 1.05,13.5 1.2,12.9 0.75,12.6 1.35,12.6" />
    <polygon points="4,12 4.15,12.6 4.75,12.6 4.3,12.9 4.45,13.5 4,13.2 3.55,13.5 3.7,12.9 3.25,12.6 3.85,12.6" />
    <polygon points="6.5,12 6.65,12.6 7.25,12.6 6.8,12.9 6.95,13.5 6.5,13.2 6.05,13.5 6.2,12.9 5.75,12.6 6.35,12.6" />
    <polygon points="9,12 9.15,12.6 9.75,12.6 9.3,12.9 9.45,13.5 9,13.2 8.55,13.5 8.7,12.9 8.25,12.6 8.85,12.6" />
    <polygon points="11.5,12 11.65,12.6 12.25,12.6 11.8,12.9 11.95,13.5 11.5,13.2 11.05,13.5 11.2,12.9 10.75,12.6 11.35,12.6" />
    <polygon points="14,12 14.15,12.6 14.75,12.6 14.3,12.9 14.45,13.5 14,13.2 13.55,13.5 13.7,12.9 13.25,12.6 13.85,12.6" />
  </g>
</svg>
